<?xml version="1.0" standalone="no"?>
<!DOCTYPE svg PUBLIC "-//W3C//DTD SVG 20010904//EN"
 "http://www.w3.org/TR/2001/REC-SVG-20010904/DTD/svg10.dtd">
<svg version="1.0" xmlns="http://www.w3.org/2000/svg"
 width="300.000000pt" height="300.000000pt" viewBox="0 0 300.000000 300.000000"
 preserveAspectRatio="xMidYMid meet">
<metadata>
Created by potrace 1.10, written by Peter Selinger 2001-2011
</metadata>
<g transform="translate(0.000000,300.000000) scale(0.100000,-0.100000)"
fill="#000000" stroke="none">
<path d="M1438 2773 c34 -2 90 -2 125 0 34 2 6 3 -63 3 -69 0 -97 -1 -62 -3z"/>
<path d="M1297 2725 c-116 -19 -283 -76 -384 -131 -336 -183 -565 -495 -640
-874 -20 -102 -23 -342 -4 -440 114 -604 623 -1030 1231 -1030 343 0 656 133
894 380 175 182 285 396 331 645 26 137 17 396 -18 527 -122 462 -490 812
-959 914 -103 22 -341 27 -451 9z m403 -35 c522 -91 931 -516 1001 -1037 14
-107 6 -322 -16 -413 -41 -169 -109 -322 -203 -453 -69 -97 -214 -237 -309
-300 -364 -241 -818 -272 -1205 -82 -284 140 -506 387 -612 683 -127 354 -76
759 135 1082 58 87 247 276 334 332 173 112 369 181 565 201 64 6 245 -1 310
-13z"/>
<path d="M1477 2676 c-15 -12 -16 -15 -2 -26 12 -10 21 -10 42 -1 25 11 25 12
7 26 -23 18 -25 18 -47 1z"/>
<path d="M1390 2670 c-8 -5 -29 -7 -46 -4 -21 4 -34 1 -43 -10 -19 -22 10 -32
48 -16 20 8 35 9 48 2 25 -14 66 13 43 28 -19 12 -31 12 -50 0z"/>
<path d="M1560 2670 c-13 -8 -12 -11 5 -23 15 -11 25 -12 43 -4 22 10 23 12 6
24 -21 15 -34 16 -54 3z"/>
<path d="M1652 2662 c-10 -7 -8 -12 5 -24 15 -14 22 -14 42 -3 24 12 24 13 3
24 -24 13 -33 13 -50 3z"/>
<path d="M1216 2642 c-16 -19 -16 -20 5 -25 12 -3 30 0 40 6 20 12 25 27 10
27 -5 0 -16 2 -23 5 -8 3 -22 -3 -32 -13z"/>
<path d="M1748 2652 c-22 -4 -23 -16 -3 -32 14 -11 55 -6 55 8 0 12 -34 28
-52 24z"/>
<path d="M1132 2618 c-18 -18 -14 -28 11 -28 23 0 47 17 47 32 0 12 -45 9 -58
-4z"/>
<path d="M1810 2622 c0 -15 24 -32 47 -32 25 0 29 10 11 28 -13 13 -58 16 -58
4z"/>
<path d="M1352 2610 c-365 -51 -682 -273 -848 -593 -91 -175 -128 -327 -128
-522 0 -71 6 -159 13 -195 30 -151 95 -311 176 -435 48 -72 176 -208 250 -265
314 -242 752 -297 1126 -141 96 40 237 131 318 207 340 313 452 796 288 1233
-133 355 -467 633 -842 701 -84 15 -278 21 -353 10z m365 -35 c434 -99 737
-391 855 -823 17 -64 21 -108 22 -252 1 -154 -2 -186 -22 -264 -87 -327 -294
-585 -586 -730 -653 -323 -1435 68 -1571 787 -19 101 -19 290 0 398 73 421
400 770 820 874 144 35 352 40 482 10z"/>
<path d="M1518 2466 c4 -83 4 -85 -18 -79 -17 4 -21 2 -18 -8 6 -18 37 -24 51
-10 12 12 26 171 15 171 -3 0 -12 2 -20 5 -10 4 -12 -12 -10 -79z"/>
<path d="M1332 2533 c-26 -4 -31 -7 -22 -18 15 -18 25 -111 13 -118 -18 -11
-57 41 -57 76 -1 31 -2 32 -45 30 -46 -2 -62 -10 -45 -21 15 -11 36 -90 29
-112 -5 -16 -3 -19 12 -14 10 3 25 8 33 11 13 4 12 6 -2 14 -10 6 -18 20 -18
31 0 21 1 21 28 -5 27 -26 33 -27 87 -21 69 8 95 30 95 77 0 53 -39 78 -108
70z m68 -32 c17 -34 12 -79 -11 -91 -28 -15 -32 -10 -37 55 -4 51 -3 55 16 55
12 0 26 -9 32 -19z m-153 -27 c3 -8 1 -20 -6 -27 -13 -13 -16 -10 -25 21 -6
16 -3 22 9 22 8 0 18 -7 22 -16z"/>
<path d="M1585 2474 c1 -71 9 -84 58 -84 30 0 37 11 54 87 8 34 7 43 -4 48 -8
3 -15 5 -16 5 -1 0 -2 -23 -3 -50 -1 -56 -19 -85 -48 -74 -16 6 -18 15 -12 58
3 28 10 52 16 54 17 6 0 22 -23 22 -20 0 -22 -5 -22 -66z"/>
<path d="M1733 2491 c0 -16 -9 -47 -20 -69 -17 -34 -18 -42 -6 -47 25 -9 36
-6 26 8 -6 8 -5 26 3 52 l12 40 17 -40 c10 -22 22 -51 27 -64 11 -31 21 -19
38 42 14 52 26 65 42 49 14 -14 -18 -101 -39 -109 -12 -5 -10 -9 8 -19 31 -17
40 -17 33 0 -7 18 31 106 45 106 29 0 5 18 -42 33 -58 18 -79 21 -59 9 13 -9
6 -72 -8 -72 -5 0 -16 20 -26 45 -21 57 -51 78 -51 36z"/>
<path d="M1082 2460 c-66 -27 -40 -140 33 -140 39 0 65 26 65 67 0 54 -50 91
-98 73z m54 -35 c34 -34 30 -79 -8 -83 -18 -2 -31 4 -42 20 -19 27 -21 74 -3
81 22 9 28 7 53 -18z"/>
<path d="M1943 2420 c-65 -26 -53 -140 14 -140 35 0 53 11 68 41 21 39 19 56
-10 84 -26 27 -37 29 -72 15z m55 -22 c29 -29 -1 -98 -42 -98 -40 0 -47 43
-15 84 22 28 39 32 57 14z"/>
<path d="M969 2397 l-35 -20 33 -50 c19 -28 32 -56 29 -64 -7 -18 5 -16 34 7
20 16 21 20 8 20 -21 0 -43 36 -28 45 5 3 15 3 20 0 13 -8 13 5 0 25 -8 13
-11 12 -23 -4 -14 -19 -15 -19 -25 1 -13 23 2 45 24 36 8 -3 14 0 14 5 0 20
-15 20 -51 -1z"/>
<path d="M2070 2357 c0 -21 -59 -99 -70 -92 -17 11 -11 -7 8 -21 20 -15 36
-18 28 -5 -3 5 3 20 15 32 l20 24 -7 -44 c-4 -31 -2 -46 7 -52 23 -14 25 -11
21 30 -3 32 0 39 17 44 30 7 37 34 15 58 -27 30 -54 43 -54 26z m44 -36 c3 -4
-1 -17 -9 -27 -11 -15 -16 -16 -26 -7 -10 10 -9 15 1 28 14 17 26 19 34 6z"/>
<path d="M886 2345 c-15 -12 -16 -15 -5 -15 16 0 66 -47 58 -55 -3 -2 -29 2
-59 10 -48 13 -57 13 -70 0 -12 -13 -12 -15 0 -15 16 0 70 -70 70 -89 0 -17
-16 -13 -80 19 -53 27 -60 28 -60 13 0 -10 13 -40 29 -67 45 -77 27 -98 -39
-44 -31 24 -37 34 -29 44 6 8 15 11 20 8 5 -3 9 -1 9 5 0 22 -24 22 -42 0 -59
-75 -59 -76 -41 -90 15 -12 16 -12 10 3 -3 9 0 21 7 27 17 14 92 -43 88 -67
-1 -10 16 3 38 28 27 31 36 46 26 48 -20 4 -27 29 -12 41 15 13 49 4 40 -10
-13 -22 15 -6 46 26 22 23 29 35 19 35 -8 0 -25 14 -37 30 -26 35 -20 36 56
16 29 -7 52 -9 52 -4 0 5 -16 29 -36 53 -20 24 -33 49 -29 55 9 14 -7 12 -29
-5z"/>
<path d="M1325 2325 c-312 -68 -559 -301 -645 -608 -27 -93 -36 -250 -21 -347
50 -326 280 -591 601 -692 66 -20 95 -23 240 -23 154 0 171 2 252 29 277 90
479 299 564 581 36 121 38 316 6 440 -100 377 -439 637 -826 634 -61 0 -138
-7 -171 -14z m317 -20 c161 -28 297 -97 420 -214 173 -163 260 -364 259 -598
0 -362 -223 -667 -571 -784 -179 -60 -395 -51 -570 24 -247 107 -422 315 -487
582 -24 102 -22 277 6 380 114 426 515 685 943 610z"/>
<path d="M1355 2286 c-357 -71 -612 -345 -655 -704 -36 -296 107 -598 360
-761 170 -110 382 -153 580 -117 302 55 537 266 632 566 20 65 23 95 23 225 0
129 -3 160 -24 225 -106 339 -392 561 -741 575 -67 3 -130 0 -175 -9z m321
-26 c243 -58 434 -215 538 -442 92 -200 95 -430 9 -629 l-25 -57 -56 0 c-31 0
-73 -3 -92 -6 -26 -5 -52 0 -98 18 -63 25 -64 25 -110 8 -40 -15 -54 -16 -92
-5 -61 16 -96 15 -154 -2 -27 -8 -52 -15 -55 -15 -3 0 -6 28 -6 62 1 35 -2 81
-6 103 -6 39 -8 36 -13 -25 -1 -8 -7 -14 -14 -13 -7 2 -12 -4 -12 -12 0 -8 4
-15 8 -15 5 0 6 -17 2 -37 -4 -24 -1 -51 8 -72 7 -18 12 -47 10 -65 -2 -25 -7
-31 -25 -29 -16 2 -21 -1 -16 -13 3 -8 12 -13 19 -10 9 3 14 -2 14 -14 0 -24
12 -25 43 -6 12 8 42 17 67 21 25 4 56 13 70 20 19 10 31 10 60 0 19 -7 68
-16 108 -20 40 -4 75 -11 78 -16 3 -5 -4 -9 -16 -9 -12 0 -33 -6 -48 -14 -29
-15 -91 -15 -187 0 -39 5 -45 9 -30 15 11 4 29 8 40 8 17 1 17 -1 5 -9 -13 -9
-13 -10 0 -10 8 0 22 5 30 10 13 8 12 10 -2 10 -10 0 -18 4 -18 9 0 5 -21 3
-47 -5 -25 -8 -62 -14 -82 -14 -35 -1 -35 -1 -16 -17 20 -16 20 -16 0 -9 -19
6 -19 5 -2 -8 9 -7 17 -19 17 -25 0 -7 5 -9 11 -5 6 3 8 15 6 26 -5 18 -2 19
31 13 20 -4 71 -11 112 -15 41 -4 65 -8 53 -9 -12 0 -25 -5 -28 -11 -9 -14 53
-1 96 21 45 22 238 73 247 65 9 -9 -106 -122 -159 -156 -71 -46 -114 -35 -46
11 17 13 34 26 37 29 3 4 14 10 25 14 12 5 15 10 8 13 -15 5 -87 -40 -106 -67
-11 -16 -19 -19 -37 -12 -22 8 -22 9 15 32 21 13 33 26 26 28 -6 2 -27 -8 -46
-22 -34 -26 -65 -34 -65 -17 0 5 6 12 13 14 6 3 3 6 -8 6 -11 0 -26 -3 -34 -8
-17 -11 -63 1 -69 17 -2 8 10 12 37 12 22 0 42 4 46 10 3 5 -13 7 -43 3 -29
-3 -58 -1 -70 6 -18 10 -21 9 -16 -4 4 -10 0 -15 -10 -15 -9 0 -16 -6 -16 -12
0 -7 -6 -4 -12 7 -16 30 -50 65 -62 65 -6 0 -3 -5 7 -11 9 -5 17 -17 17 -24 0
-8 4 -15 10 -15 5 0 13 -11 16 -26 5 -18 1 -29 -11 -38 -11 -8 -15 -18 -10
-26 6 -10 10 -9 17 4 5 9 16 16 23 16 17 0 20 17 5 22 -6 2 10 3 35 3 26 0 43
-4 41 -10 -2 -5 3 -18 12 -27 14 -17 4 -26 -12 -11 -10 10 -36 13 -36 4 0 -5
-12 -6 -26 -3 -18 3 -30 0 -36 -11 -4 -9 -14 -14 -21 -12 -6 2 -25 6 -40 10
-19 4 -27 11 -24 19 3 8 0 19 -6 25 -8 8 -8 11 1 11 6 0 9 7 6 15 -4 8 -12 15
-19 15 -8 0 -17 9 -20 21 -4 13 -14 20 -28 18 -36 -2 -48 1 -43 10 4 5 22 8
41 7 41 -4 47 9 9 18 -20 5 -33 1 -49 -14 -18 -17 -30 -20 -61 -15 -83 13
-125 28 -120 41 3 8 1 14 -3 14 -5 0 -11 -4 -13 -9 -1 -5 -15 -7 -31 -4 -22 4
-25 8 -16 19 7 8 9 18 5 21 -4 4 -11 1 -16 -6 -4 -8 -22 -15 -39 -15 -19 -1
-27 2 -21 9 21 20 8 27 -13 7 -23 -22 -77 -31 -77 -13 0 5 11 16 25 25 14 9
23 22 19 27 -4 6 -18 -1 -35 -17 -20 -19 -41 -29 -64 -30 -19 0 -35 2 -35 5 0
3 21 17 47 31 26 14 49 31 51 39 3 10 -5 7 -23 -7 -15 -12 -32 -22 -38 -22 -6
0 -19 -8 -29 -17 -17 -15 -20 -15 -28 -3 -11 18 -5 24 43 40 20 6 37 16 37 21
0 13 -6 12 -52 -11 -39 -18 -58 -19 -58 -1 0 5 21 16 46 26 57 22 52 31 -6 10
-52 -18 -60 -19 -60 -2 0 21 90 47 130 37 60 -15 122 -40 152 -62 16 -11 44
-24 61 -29 18 -4 68 -18 112 -30 44 -12 97 -24 118 -26 22 -3 37 -10 37 -19 0
-9 6 -11 19 -6 23 8 27 28 5 24 -18 -4 -18 3 2 33 9 14 21 22 27 18 7 -4 8 0
4 11 -4 10 -7 23 -7 29 0 7 -5 6 -11 -3 -7 -11 -8 -4 -3 25 13 74 10 223 -5
237 -11 11 -12 2 -9 -54 2 -37 1 -65 -2 -63 -3 2 -7 -22 -8 -53 -2 -31 -6 -60
-8 -64 -10 -16 -44 -7 -115 28 -80 40 -114 41 -222 5 -47 -15 -59 -16 -80 -5
-55 29 -107 34 -159 13 -27 -10 -50 -19 -52 -19 -6 0 -44 100 -63 165 -25 86
-25 296 1 385 81 276 280 482 541 558 94 28 104 29 220 31 69 0 126 -5 181
-19z m-371 -1127 c30 -15 55 -30 55 -33 0 -7 -110 -38 -137 -39 -26 0 -29 8
-10 29 6 8 2 6 -11 -4 -12 -11 -25 -16 -29 -12 -5 4 0 12 10 17 9 6 17 15 17
21 0 6 -11 1 -24 -11 -14 -13 -30 -20 -36 -16 -8 5 -2 14 17 26 15 10 23 19
17 19 -6 0 -23 -9 -37 -20 -22 -17 -26 -18 -37 -5 -7 8 -20 15 -29 15 -14 1
-14 2 -1 9 24 13 78 24 60 11 -13 -8 -12 -10 3 -10 10 0 20 7 23 15 10 25 86
19 149 -12z m414 6 c20 -6 61 -20 91 -29 104 -34 207 -50 195 -30 -3 6 -22 10
-41 10 -19 0 -34 5 -34 11 0 7 -10 9 -25 7 -13 -3 -22 -2 -20 3 7 10 -32 22
-45 14 -5 -3 -10 -4 -10 0 0 3 12 10 26 16 29 10 58 4 154 -36 30 -12 74 -28
98 -35 23 -7 42 -16 42 -20 0 -25 -76 -41 -185 -39 -50 0 -196 22 -226 34 -9
3 -40 -1 -68 -11 -77 -25 -77 -14 -1 50 18 15 30 29 27 32 -8 8 -97 -76 -97
-92 0 -8 -9 -14 -19 -14 -11 0 -26 -3 -34 -6 -12 -4 -15 6 -16 55 0 57 1 61
22 61 12 0 45 7 72 14 28 8 52 15 54 15 3 1 21 -4 40 -10z m455 -28 c10 -16
-6 -41 -26 -41 -12 0 -18 5 -15 13 3 8 -6 12 -27 11 -39 0 -52 6 -35 17 19 12
96 11 103 0z m-740 -38 c-10 -46 -13 -53 -24 -53 -6 0 -8 6 -4 13 6 8 3 8 -9
-1 -9 -8 -24 -12 -34 -9 -14 3 -12 6 11 16 16 6 26 14 23 17 -3 3 -19 -2 -37
-11 -17 -9 -37 -14 -43 -12 -6 2 12 12 41 22 28 10 50 21 47 23 -2 3 -31 -5
-64 -18 -33 -12 -66 -20 -73 -17 -12 4 132 56 160 57 8 0 10 -9 6 -27z m-379
-97 c39 -1 81 -8 94 -15 30 -16 126 -40 164 -41 58 0 16 -35 -61 -49 l-33 -6
35 -11 c21 -6 34 -7 33 -1 -1 5 12 11 28 14 24 3 27 1 15 -7 -12 -9 -10 -10 9
-5 14 4 21 3 18 -2 -3 -5 4 -8 16 -7 12 1 25 3 30 3 4 1 6 4 6 9 -4 24 2 62
11 62 5 0 7 -7 4 -15 -4 -10 0 -15 11 -15 11 0 15 -5 11 -15 -3 -8 -1 -15 3
-15 5 0 12 -7 15 -16 5 -14 1 -16 -26 -11 -18 3 -27 3 -19 0 11 -5 11 -7 0
-15 -10 -7 -8 -7 8 -3 12 3 35 0 50 -8 15 -8 45 -17 66 -21 30 -6 37 -4 37 9
0 14 7 15 48 9 59 -10 64 -9 140 10 49 12 68 13 84 5 21 -11 20 -12 -14 -30
-25 -13 -52 -17 -93 -15 -50 2 -55 1 -40 -11 22 -15 19 -20 -17 -27 -18 -3
-28 1 -32 11 -5 12 -1 14 15 10 14 -4 18 -2 13 3 -6 6 -35 4 -74 -4 -36 -8
-53 -15 -38 -15 15 -1 30 -6 34 -12 4 -8 -4 -9 -27 -4 -25 4 -30 3 -19 -4 11
-8 4 -10 -30 -10 -37 1 -40 2 -16 8 28 6 27 6 -18 20 -26 7 -50 10 -53 7 -4
-4 3 -9 15 -13 34 -9 26 -18 -18 -20 -45 -1 -47 2 -22 31 17 19 17 19 -8 3
-26 -18 -110 -23 -110 -7 0 6 6 10 13 10 6 0 23 3 37 6 20 4 22 3 10 -5 -18
-13 -3 -13 25 -1 20 9 20 9 0 9 -33 2 4 21 41 21 21 0 31 5 31 15 0 18 -9 19
-24 4 -7 -7 -23 -9 -38 -5 -22 6 -25 9 -15 21 8 10 9 15 2 15 -6 0 -13 -4 -16
-9 -6 -10 -76 4 -114 22 -27 13 -69 13 -134 -1 -35 -7 -52 -6 -65 3 -15 11
-12 15 26 41 24 15 38 30 32 32 -6 2 -27 -8 -46 -22 -40 -31 -47 -32 -69 -7
-17 18 -16 20 3 26 12 3 21 11 21 17 0 6 -7 7 -17 3 -34 -15 -58 -10 -68 13
-5 12 -15 22 -22 22 -7 0 -13 5 -13 11 0 7 14 8 43 3 23 -4 74 -8 112 -8z
m331 -66 c5 1 10 -4 13 -11 2 -7 -1 -9 -9 -4 -9 5 -10 1 -5 -16 3 -13 3 -19
-2 -14 -4 6 -14 10 -20 10 -15 0 -15 1 -6 33 4 15 8 19 13 12 4 -6 11 -11 16
-10z m364 -71 c0 -4 10 -5 23 -2 19 4 20 3 4 -7 -9 -6 -22 -8 -28 -5 -5 4 -17
1 -25 -6 -18 -14 -27 -8 -18 14 5 15 44 20 44 6z m-527 -10 c-18 -5 -38 -19
-44 -30 -8 -17 -13 -18 -22 -9 -9 10 -9 14 1 17 6 3 9 9 6 14 -3 6 -11 3 -18
-7 -12 -16 -36 -12 -36 6 0 10 25 14 95 17 46 1 48 1 18 -8z m130 -33 l32 -14
-28 -11 c-16 -6 -37 -11 -47 -11 -10 0 -21 -6 -23 -12 -4 -9 -8 -9 -14 -3 -4
6 -17 10 -28 10 -11 0 -19 5 -18 11 1 7 -8 9 -22 6 -29 -5 -32 4 -7 31 14 16
25 18 70 13 29 -3 67 -12 85 -20z"/>
<path d="M1476 2226 c-14 -33 -81 -87 -126 -101 -23 -7 -46 -53 -34 -65 7 -7
26 0 57 20 27 17 49 25 53 19 3 -5 14 -7 24 -4 10 3 25 -1 33 -9 8 -8 16 -13
18 -11 2 2 4 -9 4 -23 0 -15 -8 -36 -17 -46 -18 -19 -18 -19 -18 5 0 18 -2 21
-9 9 -6 -8 -7 -18 -4 -24 4 -5 -2 -7 -13 -3 -18 7 -18 6 -2 -6 10 -8 15 -17
12 -20 -9 -8 -30 14 -38 40 -8 25 3 34 44 35 32 1 35 5 20 28 -6 10 -13 11
-17 5 -5 -6 -19 -16 -33 -23 -96 -47 -137 -85 -110 -102 10 -6 21 -3 37 12 17
16 26 18 36 10 8 -7 17 -9 21 -5 4 4 4 -1 0 -10 -6 -17 -5 -18 31 -3 20 9 42
13 48 9 6 -4 8 0 4 10 -4 11 -2 14 8 10 12 -4 12 -9 3 -26 -6 -12 -17 -26 -24
-30 -8 -4 -14 -13 -14 -18 0 -6 5 -7 11 -3 12 7 29 -13 29 -36 0 -13 -1 -13
-10 0 -5 8 -10 12 -11 8 -1 -5 -3 -12 -4 -18 -1 -5 -3 -14 -4 -18 0 -5 -7 -9
-13 -9 -7 -1 -28 -6 -45 -11 -31 -10 -46 -1 -23 13 6 4 8 10 5 15 -10 16 15
22 32 8 15 -11 16 -11 10 6 -5 14 -3 17 8 13 8 -4 17 -1 21 5 5 7 2 8 -6 3
-10 -6 -12 0 -7 31 6 38 6 39 -8 13 -8 -15 -30 -36 -50 -48 -19 -11 -34 -26
-33 -32 2 -7 -14 -16 -35 -21 -49 -10 -79 -27 -72 -39 4 -5 20 -16 37 -25 25
-13 35 -14 62 -3 17 7 41 21 54 32 14 14 22 16 22 8 0 -10 3 -11 14 -2 11 9
15 9 19 -1 2 -7 9 3 14 22 9 32 10 33 17 13 4 -13 12 -23 17 -23 17 0 9 -20
-16 -42 -16 -14 -23 -28 -19 -40 3 -12 0 -18 -10 -18 -9 0 -13 7 -11 20 2 11
0 20 -4 20 -10 0 -51 -48 -51 -60 0 -6 -9 -10 -20 -10 -26 0 -25 8 5 32 14 11
25 26 25 34 0 9 10 14 28 14 26 1 26 1 8 15 -17 13 -21 12 -42 -16 -12 -17
-40 -44 -61 -59 -40 -30 -63 -66 -63 -100 0 -11 5 -20 10 -20 9 0 14 13 12 31
-1 4 6 6 16 5 11 -1 16 5 14 16 -3 17 7 21 63 30 13 3 19 10 17 22 -2 10 1 15
6 12 6 -3 13 0 15 6 3 7 6 5 6 -6 1 -11 -25 -45 -59 -78 -53 -53 -65 -60 -112
-65 -47 -6 -58 -12 -99 -56 -35 -37 -48 -60 -52 -91 -3 -22 -3 -44 0 -49 3 -5
25 12 49 38 24 27 41 52 38 56 -3 5 0 9 5 9 6 0 11 6 11 13 0 15 41 17 51 3 4
-5 12 -5 19 -1 9 6 9 9 -1 16 -11 7 -11 9 1 9 8 0 22 -4 30 -10 9 -5 19 -5 27
2 15 12 17 48 3 48 -5 0 -10 7 -10 15 0 8 5 15 10 15 6 0 10 -6 10 -12 0 -9 4
-8 10 2 8 11 9 8 4 -12 -7 -29 4 -36 24 -16 15 15 16 32 2 23 -5 -3 -10 0 -10
9 0 8 -3 23 -7 33 -4 13 0 11 16 -7 l23 -25 -4 29 c-2 16 2 31 8 33 12 4 2
-104 -12 -130 -5 -9 -28 -29 -51 -46 -24 -17 -50 -46 -58 -63 -26 -54 -41 -78
-60 -92 -16 -12 -35 -96 -21 -96 3 0 23 9 46 21 34 18 39 25 34 45 -8 30 14
62 28 42 12 -18 38 17 38 52 0 37 8 42 41 24 28 -14 29 -14 29 11 0 27 -9 32
-28 13 -9 -9 -12 -6 -12 14 0 15 5 30 10 33 6 3 10 1 10 -5 0 -6 4 -8 10 -5 5
3 18 1 27 -5 17 -11 17 -11 -1 -6 -14 5 -17 2 -12 -10 3 -8 6 -27 6 -40 0 -14
4 -22 10 -19 6 3 10 17 10 30 0 12 7 25 15 29 19 7 19 -6 0 -68 -8 -27 -13
-52 -10 -54 3 -3 8 9 11 27 5 21 10 28 18 23 6 -5 23 -12 39 -16 29 -7 35 -24
15 -45 -11 -10 -7 -12 17 -9 28 3 30 1 31 -32 0 -29 4 -34 20 -32 25 5 26 6
28 36 1 30 8 32 26 11 10 -12 16 -13 26 -4 28 23 11 94 -28 118 -17 10 -22 10
-34 -6 -19 -25 -17 -34 6 -40 22 -6 28 -43 6 -43 -7 0 -20 10 -28 21 -13 21
-15 21 -31 4 -17 -17 -18 -16 -11 10 5 20 4 26 -5 21 -6 -4 -11 -2 -11 4 0 6
8 10 18 9 33 -3 41 1 35 18 -5 12 -3 14 8 9 16 -9 -28 30 -63 56 -23 16 -22
16 15 8 39 -8 47 -1 22 20 -11 9 -15 9 -15 1 0 -7 -9 -9 -26 -5 -17 4 -29 2
-35 -7 -5 -8 -9 -9 -9 -3 0 18 22 30 58 32 26 2 35 -3 44 -23 15 -32 30 -32
24 0 -5 28 20 36 30 10 4 -8 12 -15 20 -15 8 0 14 -7 14 -15 0 -11 -8 -13 -30
-8 -20 3 -30 1 -30 -6 0 -7 -4 -9 -10 -6 -5 3 -10 2 -10 -4 0 -18 17 -21 30
-6 10 12 16 13 27 4 10 -9 17 -9 25 -1 17 17 23 15 36 -13 9 -19 19 -25 42
-25 36 0 38 9 5 48 -25 30 -88 58 -157 70 -31 6 -35 9 -25 23 7 8 19 18 28 21
13 5 16 2 12 -13 -4 -13 0 -19 10 -19 8 0 17 3 20 8 2 4 2 1 1 -5 -4 -15 12
-18 20 -4 7 11 -32 47 -66 60 -22 8 -26 8 -21 -4 6 -16 -12 -21 -21 -6 -9 13
19 32 38 25 19 -7 21 2 3 20 -16 16 -77 29 -77 16 0 -6 7 -10 16 -10 11 0 14
-5 10 -16 -3 -9 -6 -17 -6 -19 0 -2 -9 -1 -20 2 -34 9 -22 -12 15 -26 37 -13
44 -25 20 -35 -8 -3 -15 0 -15 7 0 8 -3 8 -9 -2 -7 -11 -13 -11 -32 0 -22 11
-23 11 -10 -5 8 -9 11 -20 7 -24 -13 -12 -35 29 -32 57 2 14 1 18 -1 9 -5 -21
-14 -23 -32 -5 -11 10 -12 8 -3 -9 6 -12 9 -32 7 -44 -5 -28 -15 -39 -15 -17
0 9 -5 17 -11 17 -6 0 -8 -9 -4 -21 5 -15 3 -20 -6 -17 -26 9 -21 36 8 46 15
6 21 11 12 11 -12 1 -16 11 -16 41 0 35 2 38 15 28 13 -11 14 -9 9 12 -4 14
-4 19 -1 13 8 -18 27 -16 21 2 -4 8 -2 17 3 20 6 4 10 -3 10 -14 0 -15 6 -21
24 -21 34 0 38 29 10 70 -13 19 -24 47 -24 62 l0 28 40 -21 c22 -12 40 -27 40
-35 0 -18 10 -18 36 1 12 8 24 12 27 9 3 -3 22 -7 43 -10 22 -2 44 -12 51 -20
13 -18 33 -11 33 11 0 23 -78 66 -144 80 -34 7 -70 16 -81 20 -11 3 -8 -1 8
-10 28 -16 34 -30 17 -40 -5 -3 -10 2 -10 12 0 15 -2 15 -9 4 -8 -12 -12 -12
-25 -2 -24 20 -2 55 30 47 30 -8 31 8 2 28 -15 11 -26 12 -39 6 -23 -13 -29
-12 -29 1 0 5 4 8 9 5 4 -3 7 21 5 54 -2 32 0 61 4 64 4 2 19 -6 34 -19 17
-15 24 -26 17 -31 -6 -3 -16 -1 -22 5 -14 14 -27 14 -27 1 0 -5 11 -17 24 -25
21 -14 26 -14 52 1 24 13 34 14 59 4 27 -10 28 -12 12 -22 -14 -7 -24 -5 -39
9 -12 10 -18 12 -13 4 6 -11 4 -13 -10 -7 -18 7 -18 6 0 -14 10 -11 24 -20 31
-20 7 0 16 -9 19 -20 7 -22 20 -26 30 -9 8 12 67 1 77 -15 5 -8 10 -8 19 1 28
28 -65 98 -158 118 -18 3 -50 23 -73 43 -38 34 -40 39 -27 56 14 19 15 19 45
0 18 -10 32 -22 32 -26 0 -15 -24 -8 -49 15 l-25 22 16 -25 c10 -17 26 -26 48
-28 17 -2 30 0 27 5 -3 5 3 10 14 10 10 1 19 -3 19 -8 0 -6 -4 -7 -10 -4 -5 3
-10 1 -10 -5 0 -6 8 -10 18 -8 9 1 23 -1 30 -6 18 -11 34 6 26 28 -8 20 -39
34 -107 47 -53 10 -107 42 -107 65 0 18 9 18 32 -3 14 -12 18 -13 18 -3 0 9 5
7 14 -5 8 -11 20 -16 29 -12 10 4 16 2 14 -5 -1 -7 6 -14 16 -16 11 -2 17 3
17 13 0 9 -4 14 -9 11 -5 -4 -7 3 -4 13 4 15 -5 25 -38 42 -50 25 -65 42 -74
81 -10 42 -23 43 -39 4z m15 -58 c-12 -9 -21 -23 -21 -32 0 -8 -4 -18 -10 -21
-5 -3 -10 2 -10 12 0 14 -2 15 -9 4 -6 -9 -14 -11 -26 -4 -12 7 -14 13 -6 17
6 4 11 2 11 -3 0 -7 7 -7 20 1 11 7 20 19 20 26 0 7 10 17 23 22 12 5 17 9 10
9 -7 1 -10 8 -6 18 5 13 8 12 15 -8 7 -19 5 -27 -11 -41z m39 -9 c0 -5 -5 -7
-12 -3 -7 5 -9 2 -5 -8 4 -11 -1 -18 -14 -21 -23 -6 -25 6 -3 27 18 18 34 21
34 5z m-172 -361 c9 -9 12 -9 12 -1 0 7 9 11 20 10 22 -1 28 -17 8 -17 -7 0
-26 -7 -42 -15 -23 -12 -27 -12 -23 -1 3 7 0 19 -6 25 -8 8 -7 11 4 11 8 0 20
-5 27 -12z m314 -56 c6 -6 8 -15 4 -19 -4 -4 -10 -3 -14 2 -9 12 -44 16 -36 4
3 -5 -2 -9 -10 -9 -15 0 -22 21 -11 31 8 9 56 2 67 -9z m-164 -62 c-1 -16 -5
-27 -10 -24 -4 3 -11 -1 -14 -10 -7 -19 -34 -9 -34 14 0 16 34 48 52 49 4 1 6
-12 6 -29z m-318 -245 c-7 -8 -21 -15 -31 -15 -12 0 -16 5 -13 15 4 8 17 15
31 15 22 0 24 -2 13 -15z m377 -9 c4 -4 1 -11 -7 -16 -15 -9 -40 4 -40 21 0
10 36 7 47 -5z m38 -46 c-4 -6 -16 -9 -27 -7 -14 4 -18 2 -14 -9 5 -14 -15
-20 -27 -8 -12 13 14 46 33 41 14 -3 17 -1 13 12 -5 15 -4 15 12 -1 9 -9 14
-21 10 -28z m-247 0 c-3 -16 -1 -30 4 -30 5 0 6 -4 3 -10 -4 -6 -13 -5 -25 2
-14 9 -16 16 -9 25 6 7 8 16 5 22 -5 8 5 16 23 20 2 1 1 -12 -1 -29z m350 -50
c16 -25 16 -25 -4 -7 -11 9 -26 17 -32 17 -7 0 -12 5 -12 11 0 19 32 5 48 -21z"/>
<path d="M1661 2189 c-14 -40 -14 -59 -1 -59 6 0 10 6 10 14 0 7 10 17 23 21
19 6 19 8 4 12 -9 2 -15 8 -12 13 3 5 12 7 20 3 8 -3 15 -1 15 5 0 9 -23 22
-40 22 -4 0 -13 -14 -19 -31z"/>
<path d="M1252 2201 c-11 -7 -11 -16 -1 -50 12 -40 36 -60 26 -21 -6 22 3 26
21 8 17 -17 27 -2 12 17 -7 9 -10 18 -7 22 9 8 -12 33 -27 33 -6 0 -17 -4 -24
-9z"/>
<path d="M1735 2164 c-23 -55 -17 -73 11 -36 12 16 13 15 14 -5 0 -13 5 -23
10 -23 6 0 10 9 10 19 0 11 5 23 10 26 18 11 11 31 -15 43 -23 11 -26 9 -40
-24z"/>
<path d="M1178 2173 c-10 -2 -18 -11 -18 -19 0 -20 28 -74 38 -74 15 0 47 28
40 36 -4 4 -14 1 -23 -6 -18 -15 -20 1 -3 18 9 9 7 12 -12 12 -23 1 -24 2 -7
14 17 14 23 27 10 25 -5 -1 -16 -3 -25 -6z"/>
<path d="M1816 2123 c-17 -35 -17 -38 0 -50 33 -24 49 -11 17 13 -17 12 -16
13 6 14 21 0 22 2 10 16 -12 15 -11 16 9 10 27 -9 30 9 3 24 -27 14 -25 15
-45 -27z"/>
<path d="M1085 2117 c-17 -13 -17 -15 8 -51 l25 -38 21 21 c26 26 26 36 1 61
-24 24 -30 24 -55 7z m44 -26 c6 -10 7 -21 4 -25 -9 -8 -33 14 -33 30 0 20 18
17 29 -5z"/>
<path d="M1882 2083 c-12 -19 -20 -38 -16 -42 7 -7 54 49 54 67 0 21 -14 12
-38 -25z"/>
<path d="M1923 2060 c-13 -15 -23 -33 -23 -39 0 -17 17 -13 24 6 5 13 9 14 19
4 9 -9 9 -14 -2 -20 -7 -5 -11 -14 -7 -20 4 -6 19 3 38 25 17 19 28 38 24 41
-3 4 -12 1 -18 -5 -19 -19 -29 -14 -22 13 8 33 -5 31 -33 -5z"/>
<path d="M970 2025 c-21 -23 -22 -25 -5 -25 10 0 29 -10 42 -22 17 -16 26 -19
34 -11 8 8 4 16 -15 28 -19 12 -25 23 -21 36 9 26 -7 24 -35 -6z"/>
<path d="M1991 1998 l-33 -30 20 -21 c12 -11 25 -18 29 -14 3 4 1 13 -5 19
-18 18 -15 33 3 18 9 -7 19 -10 22 -6 4 4 1 11 -7 16 -8 5 -11 12 -7 16 3 4
13 1 22 -6 23 -19 32 -2 9 20 -19 19 -19 18 -53 -12z"/>
<path d="M917 1967 c-14 -22 -13 -25 20 -51 34 -28 56 -29 34 -3 -6 8 -9 22
-5 31 3 9 2 16 -4 16 -6 0 -12 -6 -15 -12 -2 -7 -8 -10 -12 -6 -4 4 -2 14 4
22 7 8 8 17 3 20 -6 3 -17 -5 -25 -17z"/>
<path d="M1371 1951 c-6 -10 -7 -21 -3 -25 3 -4 -1 -4 -10 -1 -19 8 -48 -20
-48 -46 0 -27 9 -24 53 16 34 33 52 65 25 49 -8 -5 -9 -2 -5 9 9 23 0 21 -12
-2z"/>
<path d="M2038 1935 c-31 -26 -34 -35 -15 -35 12 1 67 45 67 55 0 13 -27 3
-52 -20z"/>
<path d="M2099 1928 c-1 -5 -2 -13 -3 -19 0 -5 -12 -19 -26 -29 -31 -24 -20
-37 13 -16 13 9 32 14 41 10 9 -3 16 -2 16 2 -1 12 -39 61 -41 52z"/>
<path d="M870 1903 c0 -5 15 -16 33 -27 17 -10 27 -21 20 -23 -6 -2 -23 3 -38
13 -34 22 -47 8 -15 -16 31 -24 53 -25 71 -4 12 14 9 20 -16 40 -30 24 -55 31
-55 17z"/>
<path d="M2133 1799 c-40 -26 -43 -43 -5 -35 l27 6 -22 -16 c-13 -9 -23 -20
-23 -25 0 -12 82 0 95 14 7 6 1 8 -17 5 -30 -6 -38 6 -13 16 24 9 18 28 -7 21
-21 -6 -22 -5 -5 8 18 15 22 27 10 27 -5 0 -23 -10 -40 -21z"/>
<path d="M810 1792 c0 -5 18 -16 40 -25 38 -15 41 -15 51 5 12 23 2 40 -11 18
-7 -11 -13 -12 -35 -2 -31 14 -45 15 -45 4z"/>
<path d="M1250 1744 c-13 -34 -13 -44 3 -44 14 0 39 49 31 61 -10 16 -24 9
-34 -17z"/>
<path d="M2168 1698 c-39 -10 -43 -18 -29 -52 5 -14 10 -16 15 -8 4 7 5 16 1
21 -3 5 -1 12 4 15 5 3 12 -2 16 -12 7 -15 9 -14 15 8 l8 25 7 -22 c4 -13 12
-23 17 -23 6 0 7 7 4 16 -3 9 -6 22 -6 30 0 16 -1 16 -52 2z"/>
<path d="M776 1693 c-3 -3 -6 -16 -6 -28 0 -16 9 -23 40 -31 38 -11 39 -10 49
18 8 22 7 28 -5 28 -7 0 -14 -7 -14 -15 0 -8 -5 -15 -11 -15 -6 0 -9 7 -5 15
3 8 1 15 -4 15 -6 0 -10 -4 -10 -10 0 -5 -5 -10 -11 -10 -6 0 -9 7 -6 15 7 15
-6 29 -17 18z"/>
<path d="M2163 1613 c-21 -8 -14 -25 7 -18 14 5 20 2 20 -9 0 -9 -9 -16 -20
-16 -11 0 -20 -5 -20 -11 0 -8 11 -9 31 -5 17 3 38 6 45 6 8 0 14 5 14 10 0 6
-7 10 -15 10 -8 0 -15 5 -15 10 0 6 7 10 15 10 8 0 15 5 15 10 0 10 -55 13
-77 3z"/>
<path d="M760 1602 c0 -11 33 -22 68 -22 12 0 22 5 22 10 0 6 -6 10 -14 10 -7
0 -28 3 -45 6 -18 4 -31 2 -31 -4z"/>
<path d="M768 1549 c-10 -5 -18 -21 -18 -34 0 -23 4 -25 45 -25 41 0 45 2 45
25 0 14 -8 29 -19 35 -24 12 -31 12 -53 -1z m36 -15 c25 -9 19 -24 -9 -24 -24
0 -32 10 -18 23 8 8 8 8 27 1z"/>
<path d="M2230 1520 c0 -5 -16 -10 -35 -10 -19 0 -35 -4 -35 -10 0 -5 16 -10
35 -10 19 0 35 -4 35 -10 0 -5 5 -10 10 -10 6 0 10 14 10 30 0 17 -4 30 -10
30 -5 0 -10 -4 -10 -10z"/>
<path d="M1467 974 c-11 -11 -8 -26 3 -19 14 8 13 -18 -1 -32 -8 -8 -6 -11 7
-10 15 2 19 -5 19 -30 0 -18 3 -33 7 -33 4 0 5 -6 2 -14 -3 -7 1 -16 8 -19 9
-3 14 3 14 17 0 11 4 31 8 43 5 16 1 28 -16 45 -13 13 -23 29 -23 37 0 16 -18
25 -28 15z"/>
<path d="M1597 1083 c-34 -26 -46 -44 -29 -43 11 1 86 70 75 70 -5 0 -26 -12
-46 -27z"/>
<path d="M1473 763 c20 -2 54 -2 75 0 20 2 3 4 -38 4 -41 0 -58 -2 -37 -4z"/>
<path d="M2188 2205 c-41 -45 -47 -74 -22 -99 23 -24 52 -19 89 13 18 16 39
31 47 34 10 4 9 8 -4 23 -16 16 -18 16 -18 2 0 -19 -67 -81 -83 -75 -6 2 -15
11 -21 20 -8 13 -3 24 24 52 19 19 40 33 47 31 19 -8 16 8 -4 26 -16 13 -21
11 -55 -27z"/>
<path d="M2320 2130 c-1 -18 -86 -74 -100 -65 -14 9 -12 -7 4 -27 16 -22 28
-23 24 -3 -2 9 12 25 30 36 37 24 38 21 13 -54 -11 -32 -17 -57 -13 -57 4 0
27 14 52 30 25 16 53 30 63 30 15 0 15 3 5 20 -15 23 -28 26 -28 6 0 -12 -40
-46 -54 -46 -3 0 4 26 15 57 17 51 18 59 4 72 -13 13 -15 13 -15 1z"/>
<path d="M607 2053 c-4 -3 -7 -19 -7 -34 0 -33 35 -48 69 -29 24 12 41 6 41
-16 0 -8 -9 -14 -20 -14 -11 0 -20 -4 -20 -10 0 -14 33 -13 48 2 18 18 14 45
-9 62 -19 13 -26 13 -49 1 -20 -11 -30 -11 -39 -2 -17 17 -13 27 10 27 11 0
17 5 14 10 -7 11 -28 13 -38 3z"/>
<path d="M2405 2000 c7 -11 -92 -63 -105 -55 -14 9 -12 -6 5 -35 9 -16 14 -19
15 -9 0 15 78 59 105 59 12 0 12 5 3 25 -6 14 -15 25 -20 25 -5 0 -6 -4 -3
-10z"/>
<path d="M2385 1887 l-60 -58 82 3 c56 2 83 7 83 15 0 6 -4 15 -10 18 -5 3
-10 1 -10 -4 0 -6 -19 -11 -42 -11 l-41 0 22 24 c13 14 32 26 42 28 15 3 16 6
6 23 -11 19 -15 17 -72 -38z"/>
<path d="M549 1907 c-10 -7 -24 -30 -33 -51 -19 -45 -19 -49 -5 -41 12 8 100
-23 110 -38 8 -12 39 45 39 71 0 48 -75 88 -111 59z m69 -33 c21 -15 31 -64
13 -64 -18 0 -101 39 -101 48 0 31 52 41 88 16z"/>
<path d="M2466 1802 c-15 -8 -46 -15 -67 -16 -22 0 -38 -5 -36 -11 2 -5 12
-41 22 -78 10 -37 21 -64 24 -59 9 13 40 22 45 13 3 -4 -7 -17 -23 -28 -24
-18 -27 -27 -26 -66 1 -24 5 -49 9 -56 12 -20 54 -12 74 14 11 14 25 25 30 25
18 0 25 -22 11 -31 -7 -4 -10 -11 -6 -15 12 -13 29 12 25 37 -5 36 -59 39 -82
5 -9 -15 -23 -26 -31 -26 -17 0 -20 26 -5 35 6 3 10 11 10 16 0 6 -4 7 -10 4
-19 -12 -10 12 14 34 15 14 26 19 31 12 9 -15 40 -14 54 3 7 9 9 29 5 56 -4
23 -10 37 -13 32 -8 -14 -110 -32 -117 -21 -3 5 0 9 7 9 8 0 5 7 -6 20 -21 24
-13 50 16 50 17 0 20 -5 16 -21 -4 -15 -2 -19 10 -15 8 3 17 6 20 6 3 0 0 7
-8 16 -10 13 -10 17 2 25 29 18 42 11 36 -21 -5 -23 -3 -28 8 -23 17 6 18 17
2 58 -12 30 -13 30 -41 17z m54 -157 c0 -9 -9 -15 -25 -15 -16 0 -25 6 -25 15
0 9 9 15 25 15 16 0 25 -6 25 -15z"/>
<path d="M490 1790 c0 -5 -3 -16 -7 -25 -5 -14 -2 -16 16 -10 12 4 34 4 49 0
26 -7 26 -8 -23 -32 -52 -27 -65 -39 -65 -62 0 -10 3 -11 13 -3 15 13 109 -8
114 -25 4 -12 -2 -14 -84 -33 -58 -13 -66 -25 -28 -40 14 -5 44 -19 67 -30 51
-24 48 -24 48 -2 0 13 -7 18 -22 18 -16 -1 -23 5 -23 19 0 16 7 20 28 18 24
-2 27 1 27 32 0 18 3 42 6 52 6 14 4 16 -6 6 -13 -12 -67 -7 -83 6 -4 4 20 20
53 36 59 28 64 44 15 45 -12 0 -37 9 -58 19 -20 10 -37 15 -37 11z"/>
<path d="M550 1503 c0 -3 7 -11 17 -18 9 -7 14 -19 10 -29 -8 -19 -96 -23
-115 -4 -9 9 -12 5 -12 -21 0 -26 3 -31 18 -27 46 13 112 18 112 7 0 -6 -5
-11 -12 -11 -6 0 -4 -7 5 -18 21 -23 21 -38 1 -46 -28 -11 -36 -7 -31 14 4 16
0 20 -20 20 -25 0 -25 -1 -9 -19 15 -17 15 -19 1 -25 -31 -12 -38 -7 -32 24 5
23 3 28 -8 23 -17 -6 -18 -16 -9 -62 5 -22 10 -29 18 -22 18 15 116 26 116 12
0 -6 -5 -11 -12 -11 -6 0 -3 -6 7 -14 10 -7 16 -19 13 -27 -6 -16 -94 -43
-109 -34 -10 7 -11 -1 -3 -33 5 -18 9 -20 18 -9 14 18 89 39 109 31 13 -5 13
5 -4 68 -10 40 -22 108 -26 150 -5 63 -9 77 -24 81 -11 3 -19 3 -19 0z"/>
<path d="M2411 1447 c0 -17 3 -26 6 -19 6 16 105 16 121 0 9 -9 12 -4 12 22 0
26 -3 31 -12 22 -14 -14 -67 -16 -102 -2 -25 9 -26 8 -25 -23z"/>
<path d="M2528 1385 c4 -25 3 -25 -39 -19 -24 3 -54 13 -66 20 -22 14 -23 13
-23 -13 0 -27 2 -28 57 -30 65 -3 72 -7 55 -33 -8 -13 -9 -20 -1 -20 22 0 -4
-20 -41 -31 -33 -10 -43 -9 -65 5 -14 9 -25 13 -25 9 0 -5 -3 -17 -6 -29 -5
-18 -2 -20 24 -16 29 4 46 -7 77 -51 13 -19 17 -20 25 -7 14 22 12 33 -4 27
-8 -3 -20 1 -27 9 -10 13 -10 17 2 25 8 5 21 7 30 5 13 -3 19 9 28 58 7 33 14
73 17 89 4 19 2 27 -9 27 -10 0 -13 -8 -9 -25z"/>
<path d="M2270 940 c-9 -16 -15 -18 -30 -10 -29 16 -35 12 -15 -10 17 -19 17
-21 0 -40 -20 -22 -14 -26 16 -10 10 6 19 7 19 2 0 -4 7 -17 15 -28 15 -18 15
-18 13 11 -3 26 1 30 27 36 l30 6 -28 8 c-23 6 -28 12 -24 31 5 29 -8 31 -23
4z"/>
<path d="M706 925 c5 -21 3 -25 -14 -25 -12 0 -24 -4 -27 -10 -4 -6 5 -10 20
-10 24 0 26 -3 21 -25 -8 -30 10 -34 19 -4 4 12 12 18 21 15 48 -20 49 -20 27
5 -22 24 -22 26 -5 43 16 16 16 17 -10 11 -21 -5 -29 -3 -34 9 -10 26 -25 18
-18 -9z"/>
<path d="M805 814 c5 -27 3 -33 -17 -39 -23 -8 -23 -8 4 -12 20 -3 28 -11 31
-31 4 -27 4 -27 12 -4 6 18 13 23 31 19 27 -5 31 5 9 23 -11 9 -12 17 -5 30
15 29 12 32 -14 15 -23 -15 -25 -15 -41 7 l-17 23 7 -31z"/>
<path d="M2170 825 c-9 -11 -17 -12 -30 -5 -27 15 -32 12 -18 -9 10 -17 9 -24
-7 -41 -19 -21 -19 -21 7 -15 21 5 27 3 33 -14 8 -28 22 -27 21 1 -1 17 6 24
29 29 17 4 23 7 15 8 -32 3 -43 17 -31 40 13 24 0 29 -19 6z"/>
<path d="M2005 717 c5 -20 3 -28 -9 -33 -24 -9 -20 -24 6 -21 16 1 23 -5 28
-23 l7 -25 7 26 c6 21 12 25 34 22 l27 -5 -22 19 c-17 13 -20 22 -13 33 17 26
11 34 -10 15 -19 -17 -21 -17 -41 1 -20 18 -20 18 -14 -9z"/>
<path d="M921 708 c10 -18 8 -24 -12 -40 l-24 -18 30 2 c25 2 31 -1 33 -19 5
-32 22 -29 22 3 0 23 3 26 25 22 14 -3 25 -1 25 3 0 5 -3 9 -7 9 -24 1 -35 18
-24 39 13 23 2 28 -17 9 -10 -10 -17 -10 -32 0 -28 17 -32 15 -19 -10z"/>
<path d="M1355 584 c-26 -11 -27 -19 -1 -15 11 2 -3 -92 -16 -100 -5 -4 3 -9
19 -12 28 -5 48 2 27 10 -8 2 -8 21 -2 60 5 31 7 59 6 63 -2 4 -16 1 -33 -6z"/>
<path d="M1624 578 c-16 -18 -16 -20 -3 -15 14 4 18 -3 24 -40 5 -33 3 -48 -7
-54 -9 -6 -2 -9 19 -9 34 0 52 14 29 23 -8 3 -16 29 -20 61 -4 31 -11 56 -15
56 -4 0 -16 -10 -27 -22z"/>
<path d="M1420 570 c-7 -13 -7 -26 -1 -37 5 -11 5 -23 -2 -34 -15 -24 -2 -49
26 -49 34 0 53 25 40 53 -7 15 -7 27 0 38 6 9 7 24 4 33 -9 23 -54 20 -67 -4z
m45 -13 c0 -26 -20 -25 -23 2 -3 16 1 22 10 19 7 -3 13 -12 13 -21z m-7 -75
c2 -15 -2 -22 -12 -22 -11 0 -16 9 -16 26 0 31 23 28 28 -4z"/>
<path d="M1521 576 c-7 -8 -11 -25 -9 -38 2 -18 9 -23 31 -23 15 1 27 -3 27
-7 0 -11 -34 -44 -51 -50 -8 -3 -11 -9 -6 -13 10 -11 58 25 77 58 20 36 4 81
-31 85 -14 2 -31 -4 -38 -12z m47 -24 c2 -14 -2 -22 -12 -22 -19 0 -29 17 -22
36 8 22 30 12 34 -14z"/>
<path d="M1050 2589 c-14 -26 -13 -29 15 -29 14 0 29 8 34 19 9 16 6 20 -15
24 -17 3 -28 -1 -34 -14z"/>
<path d="M1904 2584 c3 -9 6 -18 6 -20 0 -2 14 -4 30 -4 28 0 30 2 20 20 -13
25 -66 29 -56 4z"/>
<path d="M972 2558 c-18 -18 -14 -28 11 -28 23 0 47 17 47 32 0 12 -45 9 -58
-4z"/>
<path d="M1980 2557 c0 -19 21 -37 42 -37 21 0 24 20 6 38 -16 16 -48 15 -48
-1z"/>
<path d="M893 2511 c-7 -11 -26 -22 -43 -26 -17 -4 -30 -13 -30 -21 0 -8 -15
-21 -34 -29 -19 -8 -37 -24 -41 -35 -3 -11 -14 -20 -24 -20 -20 0 -41 -19 -41
-37 0 -24 40 -14 50 12 5 14 20 27 35 31 15 4 30 17 35 30 7 17 17 24 36 24
17 0 28 6 31 19 3 12 17 23 37 27 46 10 65 44 23 44 -12 0 -28 -9 -34 -19z"/>
<path d="M2050 2523 c1 -18 29 -43 49 -43 24 0 25 4 11 31 -10 18 -60 28 -60
12z"/>
<path d="M2130 2474 c0 -18 24 -44 40 -44 21 0 24 8 14 34 -6 15 -54 24 -54
10z"/>
<path d="M2200 2424 c0 -18 24 -44 40 -44 23 0 24 4 10 31 -10 17 -50 28 -50
13z"/>
<path d="M2270 2358 c0 -13 10 -24 29 -31 18 -6 32 -21 36 -34 3 -13 17 -28
30 -33 15 -6 25 -17 25 -29 0 -11 9 -25 19 -31 27 -14 31 -13 31 10 0 12 -10
25 -25 32 -14 6 -28 22 -32 35 -3 14 -16 29 -29 34 -14 5 -28 19 -33 32 -12
32 -51 43 -51 15z"/>
<path d="M633 2313 c-13 -4 -19 -53 -7 -53 18 0 44 24 44 40 0 19 -12 24 -37
13z"/>
<path d="M580 2240 c-11 -11 -20 -26 -20 -33 0 -8 -11 -19 -25 -25 -17 -8 -25
-20 -25 -36 0 -15 -8 -30 -20 -36 -19 -10 -29 -60 -12 -60 16 0 32 24 32 47 0
15 9 27 25 35 16 7 25 19 25 35 0 16 8 27 25 33 18 7 25 17 25 35 0 30 -4 31
-30 5z"/>
<path d="M2440 2162 c0 -21 18 -42 37 -42 20 0 15 38 -6 50 -27 14 -31 13 -31
-8z"/>
<path d="M2490 2085 c0 -14 8 -29 20 -35 12 -7 20 -21 20 -38 0 -17 8 -32 21
-40 13 -8 19 -21 17 -37 -1 -12 6 -32 16 -44 11 -12 16 -29 13 -40 -3 -12 3
-27 13 -36 17 -15 19 -15 25 5 5 14 1 28 -12 42 -10 11 -17 29 -15 40 2 11 -6
31 -18 44 -14 14 -21 31 -17 43 3 14 -3 25 -20 36 -14 9 -23 24 -21 34 3 19
-18 51 -33 51 -5 0 -9 -11 -9 -25z"/>
<path d="M442 2028 c-7 -7 -12 -23 -12 -35 0 -21 3 -22 20 -13 12 6 20 21 20
35 0 27 -9 32 -28 13z"/>
<path d="M402 1948 c-13 -13 -17 -58 -5 -58 17 0 40 33 36 51 -6 22 -14 24
-31 7z"/>
<path d="M372 1868 c-15 -15 -16 -45 -1 -54 17 -10 39 19 33 44 -7 25 -15 27
-32 10z"/>
<path d="M352 1788 c-13 -13 -16 -51 -5 -61 11 -12 33 14 33 39 0 28 -13 37
-28 22z"/>
<path d="M2627 1784 c-12 -13 -8 -51 8 -64 12 -10 15 -7 21 15 7 27 -15 63
-29 49z"/>
<path d="M331 1692 c-5 -9 -7 -30 -4 -45 3 -15 0 -34 -7 -42 -12 -15 -5 -55
10 -55 18 0 28 33 17 57 -8 18 -7 27 6 41 10 11 14 26 10 40 -7 27 -19 28 -32
4z"/>
<path d="M2635 1680 c-6 -20 9 -50 25 -50 13 0 20 43 8 57 -15 19 -26 16 -33
-7z"/>
<path d="M2651 1601 c-9 -15 -9 -27 -1 -41 13 -25 17 -25 30 0 8 15 7 25 -4
41 l-14 21 -11 -21z"/>
<path d="M316 1514 c-8 -21 -7 -26 4 -44 8 -13 11 -12 23 5 11 14 12 23 3 37
-13 22 -22 23 -30 2z"/>
<path d="M2651 1512 c-6 -12 -5 -25 4 -41 l13 -24 11 22 c13 23 6 61 -9 61 -5
0 -14 -8 -19 -18z"/>
<path d="M315 1419 c-5 -13 -1 -27 8 -36 13 -14 16 -13 27 6 9 17 9 26 -1 37
-16 20 -27 18 -34 -7z"/>
<path d="M2650 1425 c-10 -12 -10 -21 -1 -42 l12 -26 15 21 c11 17 12 26 4 42
-13 24 -14 24 -30 5z"/>
<path d="M325 1341 c-7 -22 11 -65 24 -56 18 11 18 44 1 60 -17 15 -19 15 -25
-4z"/>
<path d="M2640 1335 c-12 -15 -5 -55 10 -55 14 0 28 31 23 51 -6 23 -16 24
-33 4z"/>
<path d="M337 1251 c-3 -12 3 -27 14 -37 17 -16 19 -16 25 1 7 19 -5 46 -23
52 -6 2 -13 -5 -16 -16z"/>
<path d="M2627 1253 c-16 -19 -14 -63 4 -63 15 0 29 38 21 60 -8 20 -8 21 -25
3z"/>
<path d="M367 1183 c-12 -11 -8 -40 8 -53 8 -7 15 -27 15 -46 0 -23 6 -37 20
-44 18 -10 20 -8 20 19 0 17 -6 31 -16 35 -12 4 -15 15 -12 36 5 30 -21 68
-35 53z"/>
<path d="M2602 1168 c-15 -15 -16 -45 -1 -54 17 -10 39 19 33 44 -7 25 -15 27
-32 10z"/>
<path d="M2578 1086 c-20 -15 -24 -41 -7 -52 18 -11 41 20 32 43 -7 18 -11 20
-25 9z"/>
<path d="M420 1002 c0 -11 9 -27 20 -37 11 -10 20 -28 20 -41 0 -20 25 -44 44
-44 17 0 2 42 -19 56 -18 12 -24 22 -19 36 6 21 -11 48 -32 48 -8 0 -14 -8
-14 -18z"/>
<path d="M2548 1009 c-18 -10 -25 -59 -9 -59 15 0 33 28 29 49 -2 16 -7 18
-20 10z"/>
<path d="M2508 929 c-10 -6 -18 -21 -18 -35 0 -16 -8 -28 -25 -36 -29 -13 -38
-65 -9 -54 9 3 18 6 20 6 2 0 4 9 4 20 0 12 12 32 26 45 30 28 31 71 2 54z"/>
<path d="M510 847 c0 -16 9 -28 25 -35 17 -8 25 -20 25 -36 0 -23 33 -46 47
-33 10 10 -8 46 -27 52 -10 3 -21 18 -25 33 -11 44 -45 58 -45 19z"/>
<path d="M2388 759 c-6 -17 -21 -34 -33 -39 -28 -11 -41 -50 -16 -50 22 0 41
19 41 40 0 9 11 22 24 28 31 14 42 52 15 52 -13 0 -24 -11 -31 -31z"/>
<path d="M614 714 c3 -9 6 -19 6 -24 0 -4 11 -11 25 -14 15 -4 27 -16 31 -30
3 -15 16 -27 30 -30 14 -4 30 -18 36 -31 7 -16 20 -25 33 -25 14 0 26 -9 33
-25 8 -17 20 -25 36 -25 36 0 23 36 -16 44 -19 4 -32 14 -35 26 -3 13 -17 23
-33 27 -19 3 -30 13 -34 28 -3 13 -16 25 -30 29 -14 3 -28 16 -32 29 -7 24
-22 37 -43 37 -8 0 -11 -6 -7 -16z"/>
<path d="M2270 641 c-14 -27 -13 -31 10 -31 16 0 40 26 40 44 0 15 -40 4 -50
-13z"/>
<path d="M2200 575 c-7 -18 -17 -25 -35 -25 -17 0 -29 -8 -37 -25 -8 -17 -19
-25 -37 -25 -15 0 -31 -8 -39 -20 -7 -11 -22 -20 -35 -20 -23 0 -47 -17 -47
-32 0 -17 50 -7 62 12 7 11 24 20 38 20 14 0 31 9 38 20 7 11 21 20 32 20 11
0 27 11 35 24 9 13 27 27 40 30 14 4 29 15 35 26 9 18 8 20 -15 20 -18 0 -28
-7 -35 -25z"/>
<path d="M880 497 c0 -20 22 -37 47 -37 13 0 28 -9 35 -20 7 -11 23 -20 35
-20 26 0 27 3 13 31 -8 14 -17 18 -34 13 -17 -4 -27 1 -40 20 -17 27 -56 36
-56 13z"/>
<path d="M1030 423 c0 -17 33 -40 51 -36 22 6 24 14 7 31 -13 13 -58 17 -58 5z"/>
<path d="M1900 415 c-6 -8 -9 -19 -5 -25 10 -16 39 -12 52 9 10 16 9 20 -3 25
-23 9 -30 7 -44 -9z"/>
<path d="M1117 393 c-12 -11 14 -33 39 -33 26 0 30 10 12 28 -13 13 -41 16
-51 5z"/>
<path d="M1816 381 c-16 -18 -16 -19 8 -23 32 -6 68 25 41 36 -25 9 -30 8 -49
-13z"/>
<path d="M1211 371 c-23 -14 5 -43 33 -35 29 9 30 11 13 29 -18 17 -26 18 -46
6z"/>
<path d="M1736 368 c-22 -12 -20 -25 4 -33 20 -6 50 9 50 25 0 13 -36 18 -54
8z"/>
<path d="M1292 353 c-20 -8 6 -33 34 -33 31 0 39 16 15 29 -21 12 -29 12 -49
4z"/>
<path d="M1644 346 c-18 -14 -18 -15 6 -24 19 -7 29 -6 43 6 13 12 15 17 5 24
-19 11 -32 10 -54 -6z"/>
<path d="M1380 340 c-13 -8 -12 -11 5 -23 15 -11 25 -12 43 -4 22 10 23 12 6
24 -21 15 -34 16 -54 3z"/>
<path d="M1471 336 c-17 -20 16 -39 42 -24 15 7 16 12 6 24 -15 18 -33 18 -48
0z"/>
<path d="M1563 343 c-18 -7 -16 -21 5 -32 24 -13 65 15 42 29 -16 10 -28 11
-47 3z"/>
<path d="M213 1510 c0 -36 2 -50 4 -32 2 17 2 47 0 65 -2 17 -4 3 -4 -33z"/>
<path d="M590 585 c30 -30 57 -55 59 -55 3 0 -19 25 -49 55 -30 30 -57 55 -59
55 -3 0 19 -25 49 -55z"/>
</g>
</svg>
